:SAMPLES-PER-SECOND 30
:FULLY-SPECIFIED
:DEGREES
94
root  27.6774 38.4326 4.06702 -3.0629 79.901 2.12786
RightUpLeg  -11.7105 -9.20256 1.29785
RightLeg  22.9446 4.53786 -2.21453
RightFoot  -10.066 -0.0937243 3.54983
RightToes  -1.74624e-010 -1.59028e-015 9.93923e-017
Spine  12.3692 -1.11787 4.70428
Spine1  19.7219 -2.38771 3.72699
HEad  -1.27823 -5.44136 -1.9327
LeftShoulder1  9.93923e-017 0 1.22299e-017
LeftArm  6.87091 25.5193 -59.9654
LeftForeArm  -37.0072 -46.5898 28.2116
LeftHand  1.07285 7.57946 1.49812
RightShoulder  1.98785e-016 -4.96962e-017 1.55301e-017
RightArm  -10.4337 -41.9417 63.7758
RightForeArm  -9.99346 7.1384 4.58259
RightHand  3.13995 -22.6657 -6.85524
LeftUpLeg  -6.49093 -4.78903 8.18679
LeftLeg  30.8667 5.04182 9.80465
LeftFoot  -14.0744 -0.0768427 -6.17187
LeftToes  4.87492e-010 -9.21916e-011 1.24689e-011
95
root  28.7106 38.6434 4.61048 -4.54296 80.0706 0.939195
RightUpLeg  -8.3892 -8.41654 1.72756
RightLeg  21.0182 3.42569 -2.44219
RightFoot  -10.429 -0.0833828 3.57974
RightToes  -1.74624e-010 -1.59028e-015 9.93923e-017
Spine  11.0841 -0.555483 4.6449
Spine1  18.6629 -1.95525 4.38223
HEad  -1.76852 -5.02699 -1.71772
LeftShoulder1  9.93923e-017 0 1.22299e-017
LeftArm  6.29752 28.73 -65.742
LeftForeArm  -34.5511 -42.6507 25.8102
LeftHand  1.0539 7.47667 0.944455
RightShoulder  1.98785e-016 -4.96962e-017 1.55301e-017
RightArm  -11.805 -38.1937 67.5573
RightForeArm  -7.60381 6.27031 5.26549
RightHand  3.28778 -22.8147 -7.6725
LeftUpLeg  -6.92208 -3.29032 8.46173
LeftLeg  31.2159 6.08258 10.6103
LeftFoot  -12.5908 0.0038126 -5.6277
LeftToes  4.87492e-010 -9.21916e-011 1.24689e-011
96
root  29.7386 38.8587 5.07567 -5.00006 80.4724 0.127152
RightUpLeg  -5.66257 -7.66329 2.22113
RightLeg  18.8002 2.14092 -2.59158
RightFoot  -10.4764 -0.0746375 3.25645
RightToes  -1.74624e-010 -1.59028e-015 9.93923e-017
Spine  9.66478 -0.145028 5.58213
Spine1  17.2356 -1.10498 3.69234
HEad  -2.97539 -5.25286 -0.906968
LeftShoulder1  9.93923e-017 0 1.22299e-017
LeftArm  7.61795 31.9532 -70.9978
LeftForeArm  -33.5659 -37.3131 22.9129
LeftHand  1.04111 7.44755 -1.85394
RightShoulder  1.98785e-016 -4.96962e-017 1.55301e-017
RightArm  -9.25124 -35.3439 71.6887
RightForeArm  -11.7007 9.45003 3.36723
RightHand  3.49074 -22.9706 -8.83239
LeftUpLeg  -8.45569 -2.27935 8.02722
LeftLeg  30.6956 4.57343 9.44362
LeftFoot  -11.4882 0.0588228 -5.47786
LeftToes  4.87492e-010 -9.21916e-011 1.24689e-011
97
root  30.7714 39.0414 5.47406 -4.78064 80.9372 -0.466973
RightUpLeg  -3.41547 -6.3814 2.64089
RightLeg  16.3306 0.564828 -2.48746
RightFoot  -10.8161 -0.059804 3.00351
RightToes  -1.74624e-010 -1.59028e-015 9.93923e-017
Spine  7.89533 0.293486 7.43066
Spine1  16.2579 0.124719 1.82511
HEad  -5.25139 -6.07368 0.0612553
LeftShoulder1  9.93923e-017 0 1.22299e-017
LeftArm  12.548 34.6665 -75.4075
LeftForeArm  -34.5042 -30.6676 19.9656
LeftHand  1.0178 7.31971 -6.37377
RightShoulder  1.98785e-016 -4.96962e-017 1.55301e-017
RightArm  -0.464314 -32.2705 75.6045
RightForeArm  -22.9041 14.6386 -1.67201
RightHand  3.4859 -22.5206 -9.33799
LeftUpLeg  -10.8555 -1.66134 7.09164
LeftLeg  29.6881 1.1477 6.94631
LeftFoot  -10.8106 0.106848 -6.07614
LeftToes  4.87492e-010 -9.21916e-011 1.24689e-011
98
root  31.7921 39.175 5.83693 -3.03511 81.3488 0.274917
RightUpLeg  -1.51739 -4.31243 2.77943
RightLeg  14.0012 -1.64269 -2.13932
RightFoot  -10.8874 -0.0572737 2.96673
RightToes  -1.74624e-010 -1.59028e-015 9.93923e-017
Spine  5.99441 0.990309 9.16175
Spine1  15.7717 1.52534 -0.222126
HEad  -7.92691 -7.1911 0.756657
LeftShoulder1  9.93923e-017 0 1.22299e-017
LeftArm  17.6446 36.9624 -78.6276
LeftForeArm  -33.6151 -24.2115 15.3844
LeftHand  1.00932 7.34547 -11.4768
RightShoulder  1.98785e-016 -4.96962e-017 1.55301e-017
RightArm  13.3866 -28.3396 78.5134
RightForeArm  -37.6546 18.6148 -9.71809
RightHand  3.26285 -21.7187 -8.8106
LeftUpLeg  -13.6116 -1.15115 5.75776
LeftLeg  28.285 -1.7428 4.77996
LeftFoot  -10.2249 0.173257 -7.28564
LeftToes  4.87492e-010 -9.21916e-011 1.24689e-011
99
root  32.7867 39.2578 6.15791 -1.54833 81.5274 0.921171
RightUpLeg  0.305746 -2.98612 2.88242
RightLeg  12.1226 -2.78994 -1.66135
RightFoot  -10.5919 -0.064623 2.95272
RightToes  -1.74624e-010 -1.59028e-015 9.93923e-017
Spine  4.45931 1.89865 10.6431
Spine1  15.6056 2.96726 -1.91464
HEad  -10.5326 -8.2876 1.11885
LeftShoulder1  9.93923e-017 0 1.22299e-017
LeftArm  9.57794 39.2292 -79.7881
LeftForeArm  -17.7131 -19.3983 5.27789
LeftHand  1.00029 7.86697 -16.1334
RightShoulder  1.98785e-016 -4.96962e-017 1.55301e-017
RightArm  25.2965 -23.4278 79.8321
RightForeArm  -47.7064 20.0888 -17.1903
RightHand  3.09598 -21.2843 -8.16428
LeftUpLeg  -16.2207 -0.511061 4.37336
LeftLeg  26.5222 -2.37644 3.96959
LeftFoot  -9.57175 0.243415 -8.08946
LeftToes  4.87492e-010 -9.21916e-011 1.24689e-011
